<svg width="26" height="24" viewBox="0 0 26 24" fill="none" xmlns="http://www.w3.org/2000/svg">
<path id="Arrow 1" d="M2 10.5C1.17157 10.5 0.5 11.1716 0.5 12C0.5 12.8284 1.17157 13.5 2 13.5V10.5ZM24.6124 13.0607C25.1982 12.4749 25.1982 11.5251 24.6124 10.9393L15.0665 1.3934C14.4807 0.807611 13.5309 0.807611 12.9452 1.3934C12.3594 1.97919 12.3594 2.92893 12.9452 3.51472L21.4304 12L12.9452 20.4853C12.3594 21.0711 12.3594 22.0208 12.9452 22.6066C13.5309 23.1924 14.4807 23.1924 15.0665 22.6066L24.6124 13.0607ZM2 13.5H23.5518V10.5H2V13.5Z" fill="#9E9E9E"/>
</svg>
